<mxfile host="app.diagrams.net" modified="2023-08-27T19:03:32.207Z" agent="Mozilla/5.0 (Windows NT 10.0; Win64; x64) AppleWebKit/537.36 (KHTML, like Gecko) Chrome/115.0.0.0 Safari/537.36 OPR/101.0.0.0" version="21.6.9" etag="8iWLwLyX5bqaYj3ZPX5R" type="github">
  <diagram name="PÃ¡gina-1" id="KYi7cDYWy9b3s3AjSz9w">
    <mxGraphModel>
      <root>
        <mxCell id="0" />
        <mxCell id="1" parent="0" />
      </root>
    </mxGraphModel>
  </diagram>
</mxfile>
